<svg version="1.1" preserveAspectRatio="none" xmlns="http://www.w3.org/2000/svg" width="500" height="500" viewBox="0 0 500 500"><rect width="100%" height="100%" fill="#0C2A43" fill-opacity="1"/><svg viewBox="-101.1476 109.25 661.9255 50" width="333" height="25.1538881641514" x="83.5px" y="237.4231px" xmlns="http://www.w3.org/2000/svg" xmlns:xlink="http://www.w3.org/1999/xlink" preserveAspectRatio="none"><defs></defs><style>.companyName {fill:#F3F0ED;fill-opacity:1;}.icon3 {fill:#ED4545;fill-opacity:1;}.icon3-str {stroke:#ED4545;stroke-opacity:1;}</style><g opacity="1" transform="rotate(0 -101.1476 109.25)">
<svg width="372.854" height="50" x="-101.1476" y="109.25" version="1.1" preserveAspectRatio="none" viewBox="3.32 -28.48 215.96 28.96">
  <g transform="matrix(1 0 0 1 0 0)" class="companyName"><path id="id-D6z1nYkh7" d="M34.88 0L28.80 0L28.76-16.80L20.52-2.96L17.60-2.96L9.40-16.44L9.40 0L3.32 0L3.32-28L8.68-28L19.16-10.60L29.48-28L34.80-28L34.88 0Z M55.08 0.48Q50.72 0.48 47.22-1.40Q43.72-3.28 41.74-6.58Q39.76-9.88 39.76-14L39.76-14Q39.76-18.12 41.74-21.42Q43.72-24.72 47.22-26.60Q50.72-28.48 55.08-28.48L55.08-28.48Q59.44-28.48 62.92-26.60Q66.40-24.72 68.40-21.42Q70.40-18.12 70.40-14L70.40-14Q70.40-9.88 68.40-6.58Q66.40-3.28 62.92-1.40Q59.44 0.48 55.08 0.48L55.08 0.48ZM55.08-5.04Q57.56-5.04 59.56-6.18Q61.56-7.32 62.70-9.36Q63.84-11.40 63.84-14L63.84-14Q63.84-16.60 62.70-18.64Q61.56-20.68 59.56-21.82Q57.56-22.96 55.08-22.96L55.08-22.96Q52.60-22.96 50.60-21.82Q48.60-20.68 47.46-18.64Q46.32-16.60 46.32-14L46.32-14Q46.32-11.40 47.46-9.36Q48.60-7.32 50.60-6.18Q52.60-5.04 55.08-5.04L55.08-5.04Z M94.56-28L100.96-28L100.96 0L95.64 0L81.68-17L81.68 0L75.28 0L75.28-28L80.64-28L94.56-11L94.56-28Z M121.16 0.48Q116.80 0.48 113.30-1.40Q109.80-3.28 107.82-6.58Q105.84-9.88 105.84-14L105.84-14Q105.84-18.12 107.82-21.42Q109.80-24.72 113.30-26.60Q116.80-28.48 121.16-28.48L121.16-28.48Q125.52-28.48 129-26.60Q132.48-24.72 134.48-21.42Q136.48-18.12 136.48-14L136.48-14Q136.48-9.88 134.48-6.58Q132.48-3.28 129-1.40Q125.52 0.48 121.16 0.48L121.16 0.48ZM121.16-5.04Q123.64-5.04 125.64-6.18Q127.64-7.32 128.78-9.36Q129.92-11.40 129.92-14L129.92-14Q129.92-16.60 128.78-18.64Q127.64-20.68 125.64-21.82Q123.64-22.96 121.16-22.96L121.16-22.96Q118.68-22.96 116.68-21.82Q114.68-20.68 113.54-18.64Q112.40-16.60 112.40-14L112.40-14Q112.40-11.40 113.54-9.36Q114.68-7.32 116.68-6.18Q118.68-5.04 121.16-5.04L121.16-5.04Z M145.92 0.48Q143.08 0.48 140.70-0.58Q138.32-1.64 136.80-3.60L136.80-3.60L140.40-7.92Q142.68-4.84 145.60-4.84L145.60-4.84Q149.56-4.84 149.56-9.48L149.56-9.48L149.56-22.80L139.72-22.80L139.72-28L156-28L156-9.84Q156-4.68 153.44-2.10Q150.88 0.48 145.92 0.48L145.92 0.48Z M175.96 0.48Q171.60 0.48 168.10-1.40Q164.60-3.28 162.62-6.58Q160.64-9.88 160.64-14L160.64-14Q160.64-18.12 162.62-21.42Q164.60-24.72 168.10-26.60Q171.60-28.48 175.96-28.48L175.96-28.48Q180.32-28.48 183.80-26.60Q187.28-24.72 189.28-21.42Q191.28-18.12 191.28-14L191.28-14Q191.28-9.88 189.28-6.58Q187.28-3.28 183.80-1.40Q180.32 0.48 175.96 0.48L175.96 0.48ZM175.96-5.04Q178.44-5.04 180.44-6.18Q182.44-7.32 183.58-9.36Q184.72-11.40 184.72-14L184.72-14Q184.72-16.60 183.58-18.64Q182.44-20.68 180.44-21.82Q178.44-22.96 175.96-22.96L175.96-22.96Q173.48-22.96 171.48-21.82Q169.48-20.68 168.34-18.64Q167.20-16.60 167.20-14L167.20-14Q167.20-11.40 168.34-9.36Q169.48-7.32 171.48-6.18Q173.48-5.04 175.96-5.04L175.96-5.04Z M219.28-28L208.40-9.92L208.40 0L201.92 0L201.92-10L191.08-28L197.96-28L205.44-15.56L212.92-28L219.28-28Z"/></g>
</svg>
</g><g opacity="1" transform="rotate(0 291.7064 109.25)">
<svg width="269.0715" height="50" x="291.7064" y="109.25" version="1.1" preserveAspectRatio="none" viewBox="3.32 -28 150.68 28">
  <g transform="matrix(1 0 0 1 0 0)" class="icon3"><path id="id--VpF9B9iX5" d="M28.12 0L21.16 0L15.76-7.80L15.44-7.80L9.80-7.80L9.80 0L3.32 0L3.32-28L15.44-28Q19.16-28 21.90-26.76Q24.64-25.52 26.12-23.24Q27.60-20.96 27.60-17.84L27.60-17.84Q27.60-14.72 26.10-12.46Q24.60-10.20 21.84-9L21.84-9L28.12 0ZM21.04-17.84Q21.04-20.20 19.52-21.46Q18-22.72 15.08-22.72L15.08-22.72L9.80-22.72L9.80-12.96L15.08-12.96Q18-12.96 19.52-14.24Q21.04-15.52 21.04-17.84L21.04-17.84Z M53.64 0L51.16-6L38.16-6L35.68 0L29.04 0L41.52-28L47.92-28L60.44 0L53.64 0ZM40.24-10.92L49.12-10.92L44.68-21.64L40.24-10.92Z M83.92-14.56Q86.32-13.80 87.68-12.02Q89.04-10.24 89.04-7.64L89.04-7.64Q89.04-3.96 86.18-1.98Q83.32 0 77.84 0L77.84 0L63.36 0L63.36-28L77.04-28Q82.16-28 84.90-26.04Q87.64-24.08 87.64-20.72L87.64-20.72Q87.64-18.68 86.66-17.08Q85.68-15.48 83.92-14.56L83.92-14.56ZM76.24-23.12L69.80-23.12L69.80-16.52L76.24-16.52Q78.64-16.52 79.88-17.36Q81.12-18.20 81.12-19.84L81.12-19.84Q81.12-21.48 79.88-22.30Q78.64-23.12 76.24-23.12L76.24-23.12ZM77.36-4.88Q79.92-4.88 81.22-5.72Q82.52-6.56 82.52-8.32L82.52-8.32Q82.52-11.80 77.36-11.80L77.36-11.80L69.80-11.80L69.80-4.88L77.36-4.88Z M113.16-28L119.64-28L119.64 0L113.16 0L113.16-11.48L100.44-11.48L100.44 0L93.96 0L93.96-28L100.44-28L100.44-16.96L113.16-16.96L113.16-28Z M147.20 0L144.72-6L131.72-6L129.24 0L122.60 0L135.08-28L141.48-28L154 0L147.20 0ZM133.80-10.92L142.68-10.92L138.24-21.64L133.80-10.92Z"/></g>
</svg>
</g></svg></svg>